<svg width="40" height="40" viewBox="0 0 40 40" fill="none" xmlns="http://www.w3.org/2000/svg">
<g clip-path="url(#clip0_17_537)">
<path d="M40 20C40 31.0456 31.0456 40 20 40C8.95437 40 0 31.0456 0 20C0 20.0047 20 0.00226562 20 0C31.0456 0 40 8.95437 40 20Z" fill="#0052B4"/>
<path d="M19.9999 0C19.9988 0 19.9977 7.8125e-05 19.9966 7.8125e-05L19.9999 0Z" fill="#F0F0F0"/>
<path d="M19.9463 20H19.9998C19.9998 19.9819 19.9998 19.9645 19.9998 19.9465C19.982 19.9644 19.9642 19.9822 19.9463 20Z" fill="#F0F0F0"/>
<path d="M20 10.4348C20 6.9157 20 4.60969 20 7.62939e-05H19.9966C8.9525 0.00187317 0 8.95539 0 20H10.4348V14.1241L16.3107 20H19.9466C19.9645 19.9822 19.9823 19.9644 20.0001 19.9465C20.0001 18.5991 20.0001 17.3968 20.0001 16.3109L14.1241 10.4348H20Z" fill="#F0F0F0"/>
<path d="M10.1186 2.60867C6.99053 4.38984 4.39006 6.99031 2.60889 10.1184V20H7.82631V7.82617V7.8261H20.0002C20.0002 6.18055 20.0002 4.61289 20.0002 2.60867H10.1186Z" fill="#D80027"/>
<path d="M20.0002 17.5406L12.8945 10.4349H10.4351C10.4351 10.4348 10.4351 10.4349 10.4351 10.4349L20.0001 20H20.0002C20.0002 20 20.0002 18.3043 20.0002 17.5406Z" fill="#D80027"/>
<path d="M12.0621 23.4783L13.1598 25.7734L15.6385 25.2005L14.5285 27.4898L16.5218 29.0705L14.04 29.6298L14.0469 32.1739L12.0621 30.5823L10.0775 32.1739L10.0844 29.6298L7.60254 29.0705L9.5959 27.4898L8.48574 25.2005L10.9646 25.7734L12.0621 23.4783Z" fill="#F0F0F0"/>
<path d="M29.9441 27.8261L30.4929 28.9737L31.7323 28.6872L31.1772 29.8318L32.174 30.6222L30.933 30.9019L30.9365 32.1739L29.9441 31.378L28.9518 32.1739L28.9552 30.9019L27.7144 30.6222L28.711 29.8318L28.156 28.6872L29.3953 28.9737L29.9441 27.8261Z" fill="#F0F0F0"/>
<path d="M24.8387 15.6522L25.3875 16.7998L26.6269 16.5133L26.0719 17.6579L27.0685 18.4483L25.8276 18.728L25.831 20L24.8387 19.2041L23.8464 20L23.8497 18.728L22.6089 18.4483L23.6055 17.6579L23.0505 16.5133L24.2899 16.7998L24.8387 15.6522Z" fill="#F0F0F0"/>
<path d="M29.9441 8.69563L30.4929 9.84328L31.7323 9.5568L31.1773 10.7014L32.1739 11.4917L30.933 11.7715L30.9365 13.0435L29.9441 12.2477L28.9518 13.0435L28.9552 11.7715L27.7144 11.4917L28.7109 10.7014L28.156 9.5568L29.3953 9.84328L29.9441 8.69563Z" fill="#F0F0F0"/>
<path d="M34.4037 13.913L34.9524 15.0607L36.1918 14.7741L35.6368 15.9187L36.6334 16.7091L35.3925 16.9889L35.3959 18.2609L34.4037 17.4651L33.4113 18.2609L33.4147 16.9889L32.1738 16.7091L33.1705 15.9187L32.6155 14.7741L33.8548 15.0607L34.4037 13.913Z" fill="#F0F0F0"/>
<path d="M31.2149 20L31.6465 21.3286H33.0436L31.9133 22.1498L32.3451 23.4783L31.2149 22.6572L30.0847 23.4783L30.5164 22.1498L29.3862 21.3286H30.7832L31.2149 20Z" fill="#F0F0F0"/>
</g>
<defs>
<clipPath id="clip0_17_537">
<rect width="40" height="40" fill="white"/>
</clipPath>
</defs>
</svg>
