<svg width="41" height="40" viewBox="0 0 41 40" fill="none" xmlns="http://www.w3.org/2000/svg">
<g clip-path="url(#clip0_17_529)">
<path d="M20.4219 40C31.4676 40 40.4219 31.0457 40.4219 20C40.4219 8.9543 31.4676 0 20.4219 0C9.37618 0 0.421875 8.9543 0.421875 20C0.421875 31.0457 9.37618 40 20.4219 40Z" fill="#F0F0F0"/>
<path d="M40.4221 20C40.4221 12.0708 35.8076 5.21953 29.1177 1.98453V38.0154C35.8076 34.7805 40.4221 27.9292 40.4221 20V20Z" fill="#D80027"/>
<path d="M0.421875 20C0.421875 27.9292 5.03633 34.7805 11.7262 38.0155V1.98453C5.03633 5.21953 0.421875 12.0708 0.421875 20Z" fill="#D80027"/>
<path d="M23.9001 22.6087L27.3783 20.8695L25.6392 20V18.2609L22.161 20L23.9001 16.5217H22.161L20.4218 13.913L18.6827 16.5217H16.9435L18.6827 20L15.2044 18.2609V20L13.4653 20.8695L16.9435 22.6087L16.074 24.3478H19.5523V26.9565H21.2913V24.3478H24.7696L23.9001 22.6087Z" fill="#D80027"/>
</g>
<defs>
<clipPath id="clip0_17_529">
<rect width="40" height="40" fill="white" transform="translate(0.421875)"/>
</clipPath>
</defs>
</svg>
