<svg width="29" height="29" viewBox="0 0 29 29" fill="none" xmlns="http://www.w3.org/2000/svg">
<g clip-path="url(#clip0_15_1077)">
<path d="M14.383 28.5744C22.26 28.5744 28.6455 22.1889 28.6455 14.312C28.6455 6.43507 22.26 0.0495605 14.383 0.0495605C6.50611 0.0495605 0.120605 6.43507 0.120605 14.312C0.120605 22.1889 6.50611 28.5744 14.383 28.5744Z" fill="#D80027"/>
<path d="M7.92564 8.72961L9.15689 12.5181H13.1403L9.92015 14.8636L11.1514 18.652L7.92564 16.3121L4.69988 18.652L5.9367 14.8636L2.71094 12.5181H6.69439L7.92564 8.72961Z" fill="#FFDA44"/>
<path d="M17.0301 22.1396L16.0885 20.9808L14.6957 21.5212L15.5036 20.2676L14.562 19.1032L16.005 19.4877L16.8184 18.2341L16.8964 19.7272L18.3449 20.1116L16.9465 20.6465L17.0301 22.1396Z" fill="#FFDA44"/>
<path d="M18.9018 18.7412L19.3475 17.3149L18.1274 16.4514L19.6205 16.4291L20.0607 15.0029L20.5454 16.418L22.0385 16.4013L20.8406 17.2927L21.3198 18.7078L20.0997 17.8442L18.9018 18.7412Z" fill="#FFDA44"/>
<path d="M21.4256 10.518L20.7682 11.8606L21.8378 12.9025L20.3615 12.6908L19.7041 14.0279L19.4478 12.557L17.9658 12.3453L19.2918 11.6489L19.0355 10.1725L20.1052 11.2144L21.4256 10.518Z" fill="#FFDA44"/>
<path d="M17.0687 6.45093L16.9573 7.93846L18.3445 8.50115L16.8904 8.85771L16.7846 10.3508L15.999 9.08056L14.5449 9.43712L15.5088 8.29502L14.7176 7.03034L16.1049 7.59304L17.0687 6.45093Z" fill="#FFDA44"/>
</g>
<defs>
<clipPath id="clip0_15_1077">
<rect width="28.5249" height="28.5249" fill="white" transform="translate(0.121094 0.0496216)"/>
</clipPath>
</defs>
</svg>
