<svg width="41" height="40" viewBox="0 0 41 40" fill="none" xmlns="http://www.w3.org/2000/svg">
<g clip-path="url(#clip0_17_541)">
<path d="M20.0479 40C31.0935 40 40.0479 31.0457 40.0479 20C40.0479 8.9543 31.0935 0 20.0479 0C9.00216 0 0.0478516 8.9543 0.0478516 20C0.0478516 31.0457 9.00216 40 20.0479 40Z" fill="#0052B4"/>
<path d="M20.0481 7.8261L20.6957 9.81899H22.791L21.0958 11.0506L21.7434 13.0435L20.0481 11.8118L18.3528 13.0435L19.0004 11.0506L17.3052 9.81899H19.4006L20.0481 7.8261Z" fill="#FFDA44"/>
<path d="M11.4394 11.3917L13.3066 12.343L14.7882 10.8614L14.4604 12.9309L16.3275 13.8823L14.2579 14.2101L13.93 16.2798L12.9787 14.4127L10.9092 14.7405L12.3908 13.2589L11.4394 11.3917Z" fill="#FFDA44"/>
<path d="M7.87402 20L9.86691 19.3524V17.257L11.0985 18.9523L13.0914 18.3048L11.8596 20L13.0914 21.6952L11.0985 21.0477L9.86691 22.743V20.6476L7.87402 20Z" fill="#FFDA44"/>
<path d="M11.4394 28.6083L12.3907 26.7411L10.9092 25.2595L12.9788 25.5874L13.93 23.7203L14.2579 25.7899L16.3274 26.1177L14.4605 27.0691L14.7882 29.1386L13.3066 27.657L11.4394 28.6083Z" fill="#FFDA44"/>
<path d="M20.0481 32.1739L19.4005 30.181H17.3052L19.0005 28.9494L18.3528 26.9566L20.0481 28.1882L21.7434 26.9566L21.0958 28.9494L22.791 30.181H20.6956L20.0481 32.1739Z" fill="#FFDA44"/>
<path d="M28.6564 28.6083L26.7893 27.657L25.3076 29.1387L25.6355 27.069L23.7686 26.1177L25.8381 25.7899L26.1659 23.7203L27.1171 25.5874L29.1867 25.2595L27.705 26.7413L28.6564 28.6083Z" fill="#FFDA44"/>
<path d="M32.2217 20L30.2288 20.6476V22.743L28.9971 21.0477L27.0044 21.6952L28.236 20L27.0044 18.3048L28.9972 18.9523L30.2288 17.257V19.3525L32.2217 20Z" fill="#FFDA44"/>
<path d="M28.6564 11.3917L27.7051 13.2589L29.1868 14.7406L27.1171 14.4126L26.1659 16.2797L25.8381 14.2101L23.7686 13.8822L25.6355 12.9309L25.3076 10.8615L26.7894 12.3431L28.6564 11.3917Z" fill="#FFDA44"/>
</g>
<defs>
<clipPath id="clip0_17_541">
<rect width="40" height="40" fill="white" transform="translate(0.0478516)"/>
</clipPath>
</defs>
</svg>
