<svg width="30" height="29" viewBox="0 0 30 29" fill="none" xmlns="http://www.w3.org/2000/svg">
<g clip-path="url(#clip0_15_1522)">
<path d="M15.2424 28.6233C23.1193 28.6233 29.5048 22.2378 29.5048 14.3608C29.5048 6.48393 23.1193 0.0984192 15.2424 0.0984192C7.36549 0.0984192 0.97998 6.48393 0.97998 14.3608C0.97998 22.2378 7.36549 28.6233 15.2424 28.6233Z" fill="#F0F0F0"/>
<path d="M15.2422 0.0984802C9.58774 0.0984802 4.70197 3.38915 2.39502 8.15987H28.0894C25.7825 3.38915 20.8967 0.0984802 15.2422 0.0984802Z" fill="#FF9811"/>
<path d="M15.2422 28.6233C20.8967 28.6233 25.7825 25.3326 28.0895 20.5619H2.39502C4.70197 25.3326 9.58774 28.6233 15.2422 28.6233Z" fill="#6DA544"/>
<path d="M15.2435 19.3217C17.9833 19.3217 20.2043 17.1007 20.2043 14.3609C20.2043 11.6211 17.9833 9.40005 15.2435 9.40005C12.5037 9.40005 10.2827 11.6211 10.2827 14.3609C10.2827 17.1007 12.5037 19.3217 15.2435 19.3217Z" fill="#0052B4"/>
<path d="M15.2431 17.4614C16.9555 17.4614 18.3436 16.0733 18.3436 14.3609C18.3436 12.6485 16.9555 11.2604 15.2431 11.2604C13.5307 11.2604 12.1426 12.6485 12.1426 14.3609C12.1426 16.0733 13.5307 17.4614 15.2431 17.4614Z" fill="#F0F0F0"/>
<path d="M15.2431 10.5349L16.1996 12.7042L18.5565 12.4479L17.1561 14.3609L18.5565 16.2739L16.1996 16.0176L15.2431 18.1869L14.2866 16.0176L11.9297 16.2738L13.3301 14.3609L11.9297 12.4479L14.2866 12.7042L15.2431 10.5349Z" fill="#0052B4"/>
</g>
<defs>
<clipPath id="clip0_15_1522">
<rect width="28.5249" height="28.5249" fill="white" transform="translate(0.97998 0.0985107)"/>
</clipPath>
</defs>
</svg>
