<svg width="30" height="30" viewBox="0 0 30 30" fill="none" xmlns="http://www.w3.org/2000/svg">
<g clip-path="url(#clip0_15_1558)">
<path d="M14.8137 29.4339C22.6906 29.4339 29.0761 23.0484 29.0761 15.1715C29.0761 7.29455 22.6906 0.909042 14.8137 0.909042C6.93678 0.909042 0.55127 7.29455 0.55127 15.1715C0.55127 23.0484 6.93678 29.4339 14.8137 29.4339Z" fill="#F0F0F0"/>
<path d="M29.076 15.1715C29.076 9.03912 25.2056 3.81132 19.7744 1.79614V28.5468C25.2056 26.5316 29.076 21.3038 29.076 15.1715Z" fill="#D80027"/>
<path d="M0.552246 15.1715C0.552246 21.3038 4.42271 26.5316 9.85386 28.5468V1.79614C4.42271 3.81132 0.552246 9.03912 0.552246 15.1715Z" fill="#6DA544"/>
</g>
<defs>
<clipPath id="clip0_15_1558">
<rect width="28.5249" height="28.5249" fill="white" transform="translate(0.55127 0.908997)"/>
</clipPath>
</defs>
</svg>
