<svg width="29" height="29" viewBox="0 0 29 29" fill="none" xmlns="http://www.w3.org/2000/svg">
<g clip-path="url(#clip0_17_589)">
<path d="M14.2619 28.5248C22.1389 28.5248 28.5244 22.1393 28.5244 14.2624C28.5244 6.38545 22.1389 -6.10352e-05 14.2619 -6.10352e-05C6.38502 -6.10352e-05 -0.000488281 6.38545 -0.000488281 14.2624C-0.000488281 22.1393 6.38502 28.5248 14.2619 28.5248Z" fill="#F0F0F0"/>
<path d="M14.2623 -6.10352e-05C8.60776 -6.10352e-05 3.72199 3.2906 1.41504 8.06133H27.1094C24.8025 3.2906 19.9167 -6.10352e-05 14.2623 -6.10352e-05V-6.10352e-05Z" fill="black"/>
<path d="M14.2623 28.5248C8.60776 28.5248 3.72199 25.2341 1.41504 20.4634H27.1094C24.8025 25.2341 19.9167 28.5248 14.2623 28.5248V28.5248Z" fill="#496E2D"/>
<path d="M27.8513 9.92163H0.67351C0.236611 11.2904 0 12.7487 0 14.2624C0 15.776 0.236611 17.2343 0.67351 18.6031H27.8513C28.2882 17.2343 28.5249 15.776 28.5249 14.2624C28.5249 12.7487 28.2882 11.2904 27.8513 9.92163Z" fill="#A2001D"/>
<path d="M18.7026 6.59081L17.0135 5.81122L14.2614 12.0427L11.5094 5.81122L9.82031 6.59081L13.2371 14.2624L9.82031 21.9339L11.5094 22.7135L14.2614 16.482L17.0135 22.7135L18.7026 21.9339L15.2858 14.2624L18.7026 6.59081Z" fill="#F0F0F0"/>
<path d="M15.4091 7.32555C14.7553 6.61148 14.2619 6.20099 14.2619 6.20099C14.2619 6.20099 13.7686 6.61142 13.1147 7.32555V21.1991C13.7686 21.9133 14.2619 22.3238 14.2619 22.3238C14.2619 22.3238 14.7553 21.9133 15.4091 21.1992V7.32555Z" fill="#F0F0F0"/>
<path d="M11.1611 9.98606V18.5386C11.8521 19.7629 12.6977 20.7664 13.3315 21.4317V7.09302C12.6977 7.75828 11.852 8.76183 11.1611 9.98606V9.98606Z" fill="#A2001D"/>
<path d="M17.3623 9.986C16.6713 8.76172 15.8257 7.75822 15.1919 7.09296V21.4317C15.8256 20.7663 16.6713 19.7628 17.3623 18.5386V9.986Z" fill="#A2001D"/>
<path d="M17.3628 9.98608V18.5386C18.0623 17.2991 18.603 15.8333 18.603 14.2624C18.603 12.6915 18.0623 11.2257 17.3628 9.98608Z" fill="black"/>
<path d="M11.1616 9.98608V18.5386C10.4621 17.2991 9.92139 15.8333 9.92139 14.2624C9.92139 12.6915 10.4621 11.2257 11.1616 9.98608Z" fill="black"/>
</g>
<defs>
<clipPath id="clip0_17_589">
<rect width="28.5249" height="28.5249" fill="white"/>
</clipPath>
</defs>
</svg>
