<svg width="30" height="29" viewBox="0 0 30 29" fill="none" xmlns="http://www.w3.org/2000/svg">
<g clip-path="url(#clip0_15_1725)">
<path d="M14.9616 28.5249C22.8386 28.5249 29.2241 22.1394 29.2241 14.2624C29.2241 6.38551 22.8386 0 14.9616 0C7.08473 0 0.699219 6.38551 0.699219 14.2624C0.699219 22.1394 7.08473 28.5249 14.9616 28.5249Z" fill="#F0F0F0"/>
<path d="M14.3418 14.2624H29.2243C29.2243 12.9751 29.0527 11.7281 28.733 10.5417H14.3418V14.2624Z" fill="#D80027"/>
<path d="M14.3418 6.82112H27.131C26.2579 5.39644 25.1417 4.13716 23.8401 3.10046H14.3418V6.82112Z" fill="#D80027"/>
<path d="M14.9612 28.5248C18.3178 28.5248 21.403 27.3646 23.8394 25.4243H6.08301C8.51938 27.3646 11.6046 28.5248 14.9612 28.5248Z" fill="#D80027"/>
<path d="M2.79293 21.7037H27.1311C27.832 20.56 28.3756 19.3098 28.7331 17.983H1.19092C1.54843 19.3098 2.09201 20.56 2.79293 21.7037Z" fill="#D80027"/>
<path d="M14.9616 14.2624C14.9616 6.38556 14.9616 5.45694 14.9616 0C7.08478 0 0.699219 6.38556 0.699219 14.2624H14.9616Z" fill="#0052B4"/>
<path d="M10.184 12.2084C8.23622 12.2084 6.65721 10.6293 6.65721 8.68156C6.65721 6.73379 8.23628 5.15473 10.184 5.15473C10.7914 5.15473 11.3628 5.30833 11.8617 5.57865C11.0791 4.81332 10.0087 4.34088 8.82755 4.34088C6.4303 4.34088 4.48682 6.2843 4.48682 8.68162C4.48682 11.0789 6.4303 13.0224 8.82755 13.0224C10.0087 13.0224 11.0791 12.5499 11.8617 11.7846C11.3628 12.0548 10.7914 12.2084 10.184 12.2084Z" fill="#FFDA44"/>
<path d="M11.1786 6.20105L11.8047 7.51041L13.2188 7.18371L12.5855 8.48956L13.7227 9.39138L12.3069 9.71055L12.3108 11.1619L11.1786 10.2539L10.0463 11.1619L10.0502 9.71055L8.63428 9.39138L9.77148 8.48956L9.1382 7.18371L10.5524 7.51041L11.1786 6.20105Z" fill="#FFDA44"/>
</g>
<defs>
<clipPath id="clip0_15_1725">
<rect width="28.5249" height="28.5249" fill="white" transform="translate(0.699219)"/>
</clipPath>
</defs>
</svg>
