<svg width="30" height="30" viewBox="0 0 30 30" fill="none" xmlns="http://www.w3.org/2000/svg">
<g clip-path="url(#clip0_15_2338)">
<path d="M0.699219 14.7417C0.699219 16.4863 1.01305 18.1575 1.58633 19.7025L14.9616 20.9428L28.337 19.7025C28.9102 18.1575 29.2241 16.4863 29.2241 14.7417C29.2241 12.9971 28.9102 11.326 28.337 9.7809L14.9616 8.54068L1.58633 9.7809C1.01305 11.326 0.699219 12.9971 0.699219 14.7417H0.699219Z" fill="#FFDA44"/>
<path d="M28.3375 9.78083C26.3224 4.34974 21.0946 0.479218 14.9622 0.479218C8.82989 0.479218 3.60209 4.34974 1.58691 9.78083H28.3375Z" fill="#D80027"/>
<path d="M1.58691 19.7025C3.60209 25.1335 8.82989 29.0041 14.9622 29.0041C21.0946 29.0041 26.3224 25.1335 28.3375 19.7025H1.58691Z" fill="#D80027"/>
</g>
<defs>
<clipPath id="clip0_15_2338">
<rect width="28.5249" height="28.5249" fill="white" transform="translate(0.699219 0.479309)"/>
</clipPath>
</defs>
</svg>
