<svg width="40" height="40" viewBox="0 0 40 40" fill="none" xmlns="http://www.w3.org/2000/svg">
<g clip-path="url(#clip0_17_518)">
<path d="M19.999 40C31.0447 40 39.999 31.0457 39.999 20C39.999 8.95431 31.0447 7.62939e-06 19.999 7.62939e-06C8.95333 7.62939e-06 -0.000976562 8.95431 -0.000976562 20C-0.000976562 31.0457 8.95333 40 19.999 40Z" fill="#F0F0F0"/>
<path d="M19.1299 20H39.9994C39.9994 18.1948 39.7588 16.4461 39.3104 14.7826H19.1299V20Z" fill="#D80027"/>
<path d="M19.1299 9.56527H37.0639C35.8396 7.56746 34.2743 5.8016 32.4491 4.34785H19.1299V9.56527Z" fill="#D80027"/>
<path d="M19.9995 40C24.7064 40 29.0328 38.3731 32.4492 35.6522H7.5498C10.9662 38.3731 15.2925 40 19.9995 40Z" fill="#D80027"/>
<path d="M2.93398 30.4348H37.063C38.0459 28.831 38.8082 27.0779 39.3095 25.2174H0.6875C1.18883 27.0779 1.95109 28.831 2.93398 30.4348V30.4348Z" fill="#D80027"/>
<path d="M9.2634 3.12329H11.086L9.39066 4.35493L10.0382 6.34782L8.34301 5.11618L6.64777 6.34782L7.20715 4.62618C5.71449 5.86954 4.40621 7.32626 3.32809 8.94938H3.91207L2.83293 9.73337C2.6648 10.0138 2.50355 10.2988 2.34902 10.5879L2.86434 12.1739L1.90293 11.4754C1.66395 11.9817 1.44535 12.4995 1.24887 13.028L1.8166 14.7755H3.91207L2.21676 16.0071L2.86434 18L1.1691 16.7684L0.153633 17.5062C0.0519922 18.3232 -0.000976562 19.1554 -0.000976562 20H19.999C19.999 8.95438 19.999 7.65219 19.999 7.62939e-06C16.0481 7.62939e-06 12.365 1.1461 9.2634 3.12329V3.12329ZM10.0382 18L8.34301 16.7684L6.64777 18L7.29535 16.0071L5.60004 14.7755H7.69551L8.34301 12.7826L8.99051 14.7755H11.086L9.39066 16.0071L10.0382 18ZM9.39066 10.181L10.0382 12.1739L8.34301 10.9423L6.64777 12.1739L7.29535 10.181L5.60004 8.94938H7.69551L8.34301 6.95649L8.99051 8.94938H11.086L9.39066 10.181ZM17.2121 18L15.5169 16.7684L13.8217 18L14.4693 16.0071L12.7739 14.7755H14.8694L15.5169 12.7826L16.1644 14.7755H18.2599L16.5646 16.0071L17.2121 18ZM16.5646 10.181L17.2121 12.1739L15.5169 10.9423L13.8217 12.1739L14.4693 10.181L12.7739 8.94938H14.8694L15.5169 6.95649L16.1644 8.94938H18.2599L16.5646 10.181ZM16.5646 4.35493L17.2121 6.34782L15.5169 5.11618L13.8217 6.34782L14.4693 4.35493L12.7739 3.12329H14.8694L15.5169 1.1304L16.1644 3.12329H18.2599L16.5646 4.35493Z" fill="#0052B4"/>
</g>
<defs>
<clipPath id="clip0_17_518">
<rect width="40" height="40" fill="white"/>
</clipPath>
</defs>
</svg>
