<svg width="41" height="40" viewBox="0 0 41 40" fill="none" xmlns="http://www.w3.org/2000/svg">
<g clip-path="url(#clip0_17_533)">
<path d="M20.9521 40C31.9978 40 40.9521 31.0457 40.9521 20C40.9521 8.9543 31.9978 0 20.9521 0C9.90645 0 0.952148 8.9543 0.952148 20C0.952148 31.0457 9.90645 40 20.9521 40Z" fill="#F0F0F0"/>
<path d="M5.0865 7.82359C3.51549 9.86758 2.33088 12.2234 1.64111 14.7827H12.0456L5.0865 7.82359Z" fill="#0052B4"/>
<path d="M40.2633 14.7827C39.5735 12.2235 38.3888 9.86766 36.8179 7.82368L29.8589 14.7827H40.2633Z" fill="#0052B4"/>
<path d="M1.64111 25.2175C2.33096 27.7767 3.51557 30.1326 5.0865 32.1765L12.0454 25.2175H1.64111Z" fill="#0052B4"/>
<path d="M33.1285 4.13446C31.0845 2.56344 28.7287 1.37883 26.1694 0.688988V11.0934L33.1285 4.13446Z" fill="#0052B4"/>
<path d="M8.77588 35.8656C10.8199 37.4366 13.1757 38.6212 15.7349 39.311V28.9066L8.77588 35.8656Z" fill="#0052B4"/>
<path d="M15.7349 0.688988C13.1756 1.37883 10.8198 2.56344 8.77588 4.13438L15.7349 11.0934V0.688988Z" fill="#0052B4"/>
<path d="M26.1694 39.311C28.7287 38.6212 31.0845 37.4366 33.1284 35.8656L26.1694 28.9066V39.311Z" fill="#0052B4"/>
<path d="M29.8589 25.2175L36.8179 32.1766C38.3888 30.1327 39.5735 27.7767 40.2633 25.2175H29.8589Z" fill="#0052B4"/>
<path d="M40.7829 17.3913H23.561H23.5609V0.169297C22.7069 0.058125 21.8363 0 20.9521 0C20.0679 0 19.1974 0.058125 18.3435 0.169297V17.3912V17.3913H1.12145C1.01027 18.2452 0.952148 19.1159 0.952148 20C0.952148 20.8843 1.01027 21.7548 1.12145 22.6087H18.3433H18.3434V39.8307C19.1974 39.9419 20.0679 40 20.9521 40C21.8363 40 22.7069 39.942 23.5608 39.8307V22.6088V22.6087H40.7829C40.894 21.7548 40.9521 20.8843 40.9521 20C40.9521 19.1159 40.894 18.2452 40.7829 17.3913V17.3913Z" fill="#D80027"/>
<path d="M26.1694 25.2175L35.0941 34.1422C35.5046 33.7319 35.8962 33.3029 36.2697 32.8582L28.629 25.2174H26.1694V25.2175Z" fill="#D80027"/>
<path d="M15.7348 25.2175H15.7347L6.81006 34.1421C7.22037 34.5526 7.64936 34.9441 8.09404 35.3177L15.7348 27.6768V25.2175Z" fill="#D80027"/>
<path d="M15.7346 14.7827V14.7826L6.8099 5.85781C6.39943 6.26812 6.00787 6.69711 5.63428 7.1418L13.2751 14.7827H15.7346V14.7827Z" fill="#D80027"/>
<path d="M26.1694 14.7827L35.0942 5.85789C34.6839 5.44742 34.2549 5.05586 33.8102 4.68234L26.1694 12.3232V14.7827Z" fill="#D80027"/>
</g>
<defs>
<clipPath id="clip0_17_533">
<rect width="40" height="40" fill="white" transform="translate(0.952148)"/>
</clipPath>
</defs>
</svg>
